NotoSerif-Condensed.ufo
<glyph name="uni023D" format="2">
  <advance width="498"/>
  <unicode hex="023D"/>
  <anchor x="249" y="0" name="bottom"/>
  <anchor x="249" y="714" name="top"/>
  <anchor x="152" y="357" name="center"/>
  <anchor x="478" y="714" name="topright"/>
  <outline>
    <contour>
      <point x="29" y="347" type="line"/>
      <point x="310" y="347" type="line"/>
      <point x="310" y="394" type="line"/>
      <point x="29" y="394" type="line"/>
    </contour>
    <component base="L"/>
  </outline>
</glyph>
<glyph name="uni023E" format="2">
  <advance width="494"/>
  <unicode hex="023E"/>
  <anchor x="247" y="0" name="bottom"/>
  <anchor x="247" y="714" name="top"/>
  <anchor x="247" y="357" name="center"/>
  <anchor x="474" y="714" name="topright"/>
  <outline>
    <contour>
      <point x="19" y="-66" type="line"/>
      <point x="69" y="-66" type="line"/>
      <point x="460" y="760" type="line"/>
      <point x="413" y="760" type="line"/>
    </contour>
    <component base="T"/>
  </outline>
</glyph>
<glyph name="arrowheadleftbelowcomb" format="2">
  <unicode hex="0354"/>
  <anchor x="0" y="0" name="_bottom"/>
  <anchor x="0" y="-240" name="bottom"/>
  <outline>
    <contour>
      <point x="67" y="-240" type="curve"/>
      <point x="76" y="-240" type="line"/>
      <point x="76" y="-189" type="line"/>
      <point x="56" y="-172"/>
      <point x="29" y="-153"/>
      <point x="2" y="-140" type="curve"/>
      <point x="33" y="-126"/>
      <point x="63" y="-103"/>
      <point x="76" y="-91" type="curve"/>
      <point x="76" y="-40" type="line"/>
      <point x="67" y="-40" type="line"/>
      <point x="16" y="-77"/>
      <point x="-28" y="-102"/>
      <point x="-76" y="-111" type="curve"/>
      <point x="-76" y="-169" type="line"/>
      <point x="-29" y="-184"/>
      <point x="17" y="-204"/>
    </contour>
  </outline>
</glyph>
<glyph name="arrowheadrightbelowcomb" format="2">
  <unicode hex="0355"/>
  <anchor x="0" y="0" name="_bottom"/>
  <anchor x="0" y="-240" name="bottom"/>
  <outline>
    <contour>
      <point x="-76" y="-189" type="curve"/>
      <point x="-76" y="-240" type="line"/>
      <point x="-67" y="-240" type="line"/>
      <point x="-16" y="-203"/>
      <point x="29" y="-178"/>
      <point x="76" y="-169" type="curve"/>
      <point x="76" y="-111" type="line"/>
      <point x="29" y="-96"/>
      <point x="-16" y="-76"/>
      <point x="-67" y="-40" type="curve"/>
      <point x="-76" y="-40" type="line"/>
      <point x="-76" y="-91" type="line"/>
      <point x="-56" y="-108"/>
      <point x="-29" y="-127"/>
      <point x="-1" y="-140" type="curve"/>
      <point x="-33" y="-154"/>
      <point x="-62" y="-177"/>
    </contour>
  </outline>
</glyph>
<glyph name="uni052A" format="2">
  <advance width="1125"/>
  <unicode hex="052A"/>
  <anchor x="563" y="-210" name="bottom"/>
  <anchor x="563" y="714" name="top"/>
  <outline>
    <contour>
      <point x="405" y="336" type="line"/>
      <point x="693" y="336" type="line"/>
      <point x="693" y="381" type="line"/>
      <point x="405" y="381" type="line"/>
    </contour>
    <component base="afii10021"/>
    <component base="afii10028" xOffset="558"/>
  </outline>
</glyph>
<glyph name="uni052D" format="2">
  <advance width="484"/>
  <unicode hex="052D"/>
  <anchor x="242" y="-210" name="bottom"/>
  <anchor x="242" y="536" name="top"/>
  <outline>
    <contour>
      <point x="9" y="-210" type="line"/>
      <point x="55" y="-210" type="line"/>
      <point x="61" y="-135" type="line" smooth="yes"/>
      <point x="68" y="-35"/>
      <point x="87" y="0"/>
      <point x="154" y="0" type="curve" smooth="yes"/>
      <point x="340" y="0" type="line" smooth="yes"/>
      <point x="395" y="0"/>
      <point x="417" y="-34"/>
      <point x="424" y="-136" type="curve" smooth="yes"/>
      <point x="429" y="-210" type="line"/>
      <point x="475" y="-210" type="line"/>
      <point x="475" y="44" type="line"/>
      <point x="451" y="44" type="line" smooth="yes"/>
      <point x="411" y="44"/>
      <point x="395" y="59"/>
      <point x="395" y="117" type="curve" smooth="yes"/>
      <point x="395" y="424" type="line" smooth="yes"/>
      <point x="395" y="483"/>
      <point x="418" y="494"/>
      <point x="461" y="494" type="curve" smooth="yes"/>
      <point x="475" y="494" type="line"/>
      <point x="475" y="536" type="line"/>
      <point x="281" y="536" type="line"/>
      <point x="162" y="264" type="line"/>
      <point x="151" y="276"/>
      <point x="144" y="295"/>
      <point x="144" y="324" type="curve" smooth="yes"/>
      <point x="144" y="430" type="line" smooth="yes"/>
      <point x="144" y="488"/>
      <point x="166" y="495"/>
      <point x="202" y="495" type="curve" smooth="yes"/>
      <point x="206" y="495" type="line"/>
      <point x="206" y="536" type="line"/>
      <point x="-9" y="536" type="line"/>
      <point x="-9" y="495" type="line"/>
      <point x="-4" y="495" type="line" smooth="yes"/>
      <point x="31" y="495"/>
      <point x="57" y="484"/>
      <point x="57" y="427" type="curve" smooth="yes"/>
      <point x="57" y="312" type="line" smooth="yes"/>
      <point x="57" y="253"/>
      <point x="80" y="212"/>
      <point x="132" y="195" type="curve"/>
      <point x="67" y="46" type="line"/>
      <point x="9" y="46" type="line"/>
    </contour>
    <contour>
      <point x="120" y="46" type="line"/>
      <point x="179" y="186" type="line"/>
      <point x="182" y="186"/>
      <point x="185" y="186"/>
      <point x="189" y="186" type="curve" smooth="yes"/>
      <point x="232" y="186"/>
      <point x="273" y="201"/>
      <point x="310" y="230" type="curve"/>
      <point x="310" y="46" type="line"/>
    </contour>
    <contour>
      <point x="203" y="242" type="curve"/>
      <point x="310" y="490" type="line"/>
      <point x="310" y="276" type="line"/>
      <point x="279" y="254"/>
      <point x="244" y="242"/>
    </contour>
  </outline>
</glyph>
<glyph name="uni1ABF" format="2">
  <unicode hex="1ABF"/>
  <anchor x="0" y="0" name="_bottom"/>
  <outline>
    <contour>
      <point x="-47" y="-278" type="line"/>
      <point x="1" y="-107" type="line"/>
      <point x="47" y="-278" type="line"/>
      <point x="78" y="-278" type="line"/>
      <point x="124" y="-111" type="line" smooth="yes"/>
      <point x="131" y="-84"/>
      <point x="137" y="-80"/>
      <point x="151" y="-80" type="curve" smooth="yes"/>
      <point x="155" y="-80" type="line"/>
      <point x="155" y="-64" type="line"/>
      <point x="80" y="-64" type="line"/>
      <point x="80" y="-80" type="line"/>
      <point x="82" y="-80" type="line" smooth="yes"/>
      <point x="97" y="-80"/>
      <point x="103" y="-86"/>
      <point x="103" y="-100" type="curve" smooth="yes"/>
      <point x="103" y="-104"/>
      <point x="102" y="-113"/>
      <point x="100" y="-120" type="curve" smooth="yes"/>
      <point x="83" y="-185" type="line" smooth="yes"/>
      <point x="77" y="-209"/>
      <point x="73" y="-231"/>
      <point x="71" y="-244" type="curve"/>
      <point x="70" y="-244" type="line"/>
      <point x="68" y="-231"/>
      <point x="60" y="-200"/>
      <point x="55" y="-183" type="curve" smooth="yes"/>
      <point x="20" y="-65" type="line"/>
      <point x="-1" y="-65" type="line"/>
      <point x="-39" y="-186" type="line" smooth="yes"/>
      <point x="-45" y="-204"/>
      <point x="-51" y="-231"/>
      <point x="-53" y="-244" type="curve"/>
      <point x="-54" y="-244" type="line"/>
      <point x="-56" y="-231"/>
      <point x="-62" y="-202"/>
      <point x="-66" y="-183" type="curve" smooth="yes"/>
      <point x="-82" y="-114" type="line" smooth="yes"/>
      <point x="-83" y="-108"/>
      <point x="-85" y="-101"/>
      <point x="-85" y="-97" type="curve" smooth="yes"/>
      <point x="-85" y="-84"/>
      <point x="-78" y="-80"/>
      <point x="-63" y="-80" type="curve" smooth="yes"/>
      <point x="-61" y="-80" type="line"/>
      <point x="-61" y="-64" type="line"/>
      <point x="-151" y="-64" type="line"/>
      <point x="-151" y="-80" type="line"/>
      <point x="-150" y="-80" type="line" smooth="yes"/>
      <point x="-136" y="-80"/>
      <point x="-128" y="-84"/>
      <point x="-124" y="-101" type="curve" smooth="yes"/>
      <point x="-77" y="-278" type="line"/>
    </contour>
  </outline>
</glyph>
<glyph name="uni1AC0" format="2">
  <unicode hex="1AC0"/>
  <anchor x="0" y="0" name="_bottom"/>
  <outline>
    <contour>
      <point x="48" y="-64" type="line"/>
      <point x="0" y="-235" type="line"/>
      <point x="-46" y="-64" type="line"/>
      <point x="-77" y="-64" type="line"/>
      <point x="-123" y="-231" type="line" smooth="yes"/>
      <point x="-130" y="-258"/>
      <point x="-136" y="-262"/>
      <point x="-150" y="-262" type="curve" smooth="yes"/>
      <point x="-154" y="-262" type="line"/>
      <point x="-154" y="-278" type="line"/>
      <point x="-79" y="-278" type="line"/>
      <point x="-79" y="-262" type="line"/>
      <point x="-81" y="-262" type="line" smooth="yes"/>
      <point x="-96" y="-262"/>
      <point x="-102" y="-256"/>
      <point x="-102" y="-242" type="curve" smooth="yes"/>
      <point x="-102" y="-238"/>
      <point x="-101" y="-229"/>
      <point x="-99" y="-222" type="curve" smooth="yes"/>
      <point x="-82" y="-157" type="line" smooth="yes"/>
      <point x="-76" y="-133"/>
      <point x="-72" y="-111"/>
      <point x="-70" y="-98" type="curve"/>
      <point x="-69" y="-98" type="line"/>
      <point x="-67" y="-111"/>
      <point x="-59" y="-142"/>
      <point x="-54" y="-159" type="curve" smooth="yes"/>
      <point x="-19" y="-277" type="line"/>
      <point x="2" y="-277" type="line"/>
      <point x="40" y="-156" type="line" smooth="yes"/>
      <point x="46" y="-138"/>
      <point x="52" y="-111"/>
      <point x="54" y="-98" type="curve"/>
      <point x="55" y="-98" type="line"/>
      <point x="57" y="-111"/>
      <point x="63" y="-140"/>
      <point x="67" y="-159" type="curve" smooth="yes"/>
      <point x="83" y="-228" type="line" smooth="yes"/>
      <point x="84" y="-234"/>
      <point x="86" y="-241"/>
      <point x="86" y="-245" type="curve" smooth="yes"/>
      <point x="86" y="-258"/>
      <point x="79" y="-262"/>
      <point x="64" y="-262" type="curve" smooth="yes"/>
      <point x="62" y="-262" type="line"/>
      <point x="62" y="-278" type="line"/>
      <point x="152" y="-278" type="line"/>
      <point x="152" y="-262" type="line"/>
      <point x="151" y="-262" type="line" smooth="yes"/>
      <point x="137" y="-262"/>
      <point x="129" y="-258"/>
      <point x="125" y="-241" type="curve" smooth="yes"/>
      <point x="78" y="-64" type="line"/>
    </contour>
  </outline>
</glyph>
<glyph name="uni1D6E" format="2">
  <advance width="299"/>
  <unicode hex="1D6E"/>
  <anchor x="150" y="0" name="bottom"/>
  <anchor x="217" y="770" name="top"/>
  <anchor x="355" y="770" name="topright"/>
  <outline>
    <contour>
      <point x="-17" y="246" type="curve"/>
      <point x="23" y="246" type="line"/>
      <point x="25" y="275"/>
      <point x="30" y="304"/>
      <point x="63" y="304" type="curve" smooth="yes"/>
      <point x="114" y="304"/>
      <point x="146" y="246"/>
      <point x="203" y="246" type="curve" smooth="yes"/>
      <point x="269" y="246"/>
      <point x="289" y="305"/>
      <point x="290" y="363" type="curve"/>
      <point x="251" y="363" type="line"/>
      <point x="248" y="335"/>
      <point x="242" y="306"/>
      <point x="209" y="306" type="curve" smooth="yes"/>
      <point x="161" y="306"/>
      <point x="128" y="362"/>
      <point x="70" y="362" type="curve" smooth="yes"/>
      <point x="6" y="362"/>
      <point x="-15" y="305"/>
    </contour>
    <component base="f"/>
  </outline>
</glyph>
<glyph name="uni1D7A" format="2">
  <advance width="804"/>
  <unicode hex="1D7A"/>
  <anchor x="179" y="0" name="bottom_1"/>
  <anchor x="539" y="0" name="bottom_2"/>
  <anchor x="126" y="268" name="center_1"/>
  <anchor x="539" y="268" name="center_2"/>
  <anchor x="141" y="659" name="top_1"/>
  <anchor x="411" y="760" name="top_2"/>
  <anchor x="176" y="960" name="topright_1"/>
  <anchor x="731" y="760" name="topright_2"/>
  <outline>
    <contour>
      <point x="17" y="-110" type="line"/>
      <point x="78" y="-110" type="line"/>
      <point x="637" y="760" type="line"/>
      <point x="575" y="760" type="line"/>
    </contour>
    <component base="t"/>
    <component base="h" xOffset="285"/>
  </outline>
</glyph>
<glyph name="uni1D7C" format="2">
  <advance width="277"/>
  <unicode hex="1D7C"/>
  <anchor x="139" y="0" name="bottom"/>
  <anchor x="139" y="536" name="top"/>
  <outline>
    <contour>
      <point x="7" y="267" type="line"/>
      <point x="253" y="267" type="line"/>
      <point x="253" y="311" type="line"/>
      <point x="7" y="311" type="line"/>
    </contour>
    <component base="iotaLatin"/>
  </outline>
</glyph>
<glyph name="uni1D7D" format="2">
  <advance width="492"/>
  <unicode hex="1D7D"/>
  <anchor x="129" y="-236" name="bottom"/>
  <anchor x="247" y="536" name="top"/>
  <anchor x="475" y="536" name="topright"/>
  <outline>
    <contour>
      <point x="6" y="244" type="line"/>
      <point x="500" y="244" type="line"/>
      <point x="500" y="289" type="line"/>
      <point x="6" y="289" type="line"/>
    </contour>
    <component base="p"/>
  </outline>
</glyph>
<glyph name="uni2034" format="2">
  <advance width="463"/>
  <unicode hex="2034"/>
  <outline>
    <contour>
      <point x="304" y="479" type="line"/>
      <point x="348" y="479" type="line"/>
      <point x="443" y="714" type="line"/>
      <point x="346" y="714" type="line"/>
    </contour>
    <contour>
      <point x="20" y="479" type="line"/>
      <point x="64" y="479" type="line"/>
      <point x="159" y="714" type="line"/>
      <point x="62" y="714" type="line"/>
    </contour>
    <contour>
      <point x="162" y="479" type="line"/>
      <point x="206" y="479" type="line"/>
      <point x="301" y="714" type="line"/>
      <point x="204" y="714" type="line"/>
    </contour>
  </outline>
</glyph>
<glyph name="quadrupleprime" format="2">
  <advance width="607"/>
  <unicode hex="2057"/>
  <outline>
    <contour>
      <point x="448" y="479" type="line"/>
      <point x="491" y="479" type="line"/>
      <point x="587" y="714" type="line"/>
      <point x="490" y="714" type="line"/>
    </contour>
    <contour>
      <point x="20" y="479" type="line"/>
      <point x="64" y="479" type="line"/>
      <point x="159" y="714" type="line"/>
      <point x="62" y="714" type="line"/>
    </contour>
    <contour>
      <point x="162" y="479" type="line"/>
      <point x="206" y="479" type="line"/>
      <point x="302" y="714" type="line"/>
      <point x="204" y="714" type="line"/>
    </contour>
    <contour>
      <point x="306" y="479" type="line"/>
      <point x="349" y="479" type="line"/>
      <point x="445" y="714" type="line"/>
      <point x="348" y="714" type="line"/>
    </contour>
  </outline>
</glyph>
<glyph name="Euro" format="2">
  <advance width="443"/>
  <unicode hex="20AC"/>
  <outline>
    <contour>
      <point x="288" y="-10" type="curve" smooth="yes"/>
      <point x="377" y="-10"/>
      <point x="418" y="37"/>
      <point x="418" y="72" type="curve" smooth="yes"/>
      <point x="418" y="86"/>
      <point x="412" y="99"/>
      <point x="403" y="106" type="curve"/>
      <point x="384" y="74"/>
      <point x="353" y="47"/>
      <point x="300" y="47" type="curve" smooth="yes"/>
      <point x="222" y="47"/>
      <point x="180" y="120"/>
      <point x="171" y="265" type="curve"/>
      <point x="298" y="265" type="line"/>
      <point x="298" y="309" type="line"/>
      <point x="168" y="309" type="line"/>
      <point x="168" y="382" type="line"/>
      <point x="330" y="382" type="line"/>
      <point x="330" y="427" type="line"/>
      <point x="171" y="427" type="line"/>
      <point x="181" y="616"/>
      <point x="224" y="675"/>
      <point x="277" y="675" type="curve" smooth="yes"/>
      <point x="328" y="675"/>
      <point x="345" y="632"/>
      <point x="345" y="567" type="curve"/>
      <point x="392" y="567"/>
      <point x="422" y="582"/>
      <point x="422" y="623" type="curve" smooth="yes"/>
      <point x="422" y="679"/>
      <point x="368" y="722"/>
      <point x="284" y="722" type="curve" smooth="yes"/>
      <point x="179" y="722"/>
      <point x="98" y="645"/>
      <point x="84" y="427" type="curve"/>
      <point x="28" y="427" type="line"/>
      <point x="28" y="382" type="line"/>
      <point x="81" y="382" type="line"/>
      <point x="81" y="309" type="line"/>
      <point x="28" y="309" type="line"/>
      <point x="28" y="265" type="line"/>
      <point x="84" y="265" type="line"/>
      <point x="102" y="64"/>
      <point x="179" y="-10"/>
    </contour>
  </outline>
</glyph>
<glyph name="uni20AE" format="2">
  <advance width="479"/>
  <unicode hex="20AE"/>
  <anchor x="247" y="0" name="bottom"/>
  <anchor x="247" y="357" name="center"/>
  <anchor x="247" y="714" name="top"/>
  <anchor x="474" y="714" name="topright"/>
  <outline>
    <contour>
      <point x="93" y="294" type="line"/>
      <point x="401" y="453" type="line"/>
      <point x="380" y="493" type="line"/>
      <point x="72" y="334" type="line"/>
    </contour>
    <contour>
      <point x="93" y="135" type="line"/>
      <point x="401" y="296" type="line"/>
      <point x="380" y="335" type="line"/>
      <point x="72" y="176" type="line"/>
    </contour>
    <component base="T"/>
  </outline>
</glyph>
<glyph name="uni20B5" format="2">
  <advance width="499"/>
  <unicode hex="20B5"/>
  <anchor x="289" y="0" name="bottom"/>
  <anchor x="299" y="714" name="top"/>
  <anchor x="478" y="714" name="topright"/>
  <outline>
    <contour>
      <point x="268" y="-80" type="line"/>
      <point x="306" y="-80" type="line"/>
      <point x="306" y="780" type="line"/>
      <point x="268" y="780" type="line"/>
    </contour>
    <component base="C"/>
  </outline>
</glyph>
<glyph name="downwardsancora" format="2">
  <advance width="593"/>
  <unicode hex="2E14"/>
  <outline>
    <contour>
      <point x="359" y="83" type="curve"/>
      <point x="332" y="117" type="line"/>
      <point x="289" y="97"/>
      <point x="250" y="104"/>
      <point x="206" y="151" type="curve"/>
      <point x="513" y="539" type="line"/>
      <point x="489" y="569" type="line"/>
      <point x="182" y="181" type="line"/>
      <point x="158" y="216"/>
      <point x="147" y="250"/>
      <point x="147" y="284" type="curve" smooth="yes"/>
      <point x="147" y="303"/>
      <point x="150" y="321"/>
      <point x="156" y="341" type="curve"/>
      <point x="129" y="375" type="line"/>
      <point x="117" y="344"/>
      <point x="113" y="314"/>
      <point x="113" y="287" type="curve" smooth="yes"/>
      <point x="113" y="231"/>
      <point x="135" y="181"/>
      <point x="171" y="136" type="curve" smooth="yes"/>
      <point x="225" y="68"/>
      <point x="287" y="42"/>
    </contour>
  </outline>
</glyph>
<glyph name="upwardsancora" format="2">
  <advance width="593"/>
  <unicode hex="2E15"/>
  <outline>
    <contour>
      <point x="119" y="42" type="line"/>
      <point x="427" y="430" type="line"/>
      <point x="464" y="375"/>
      <point x="469" y="325"/>
      <point x="453" y="270" type="curve"/>
      <point x="480" y="236" type="line"/>
      <point x="513" y="328"/>
      <point x="493" y="407"/>
      <point x="439" y="475" type="curve" smooth="yes"/>
      <point x="385" y="543"/>
      <point x="322" y="569"/>
      <point x="250" y="528" type="curve"/>
      <point x="277" y="494" type="line"/>
      <point x="319" y="514"/>
      <point x="359" y="507"/>
      <point x="403" y="460" type="curve"/>
      <point x="96" y="72" type="line"/>
    </contour>
  </outline>
</glyph>
<glyph name="uni2E4C" format="2">
  <advance width="287"/>
  <unicode hex="2E4C"/>
  <outline>
    <contour>
      <point x="116" y="113" type="curve" smooth="yes"/>
      <point x="88" y="113"/>
      <point x="65" y="99"/>
      <point x="65" y="52" type="curve" smooth="yes"/>
      <point x="65" y="5"/>
      <point x="88" y="-9"/>
      <point x="116" y="-9" type="curve" smooth="yes"/>
      <point x="145" y="-9"/>
      <point x="167" y="5"/>
      <point x="167" y="52" type="curve" smooth="yes"/>
      <point x="167" y="99"/>
      <point x="145" y="113"/>
    </contour>
    <component base="uni2E45" xScale="0" xyScale="-1" yxScale="1" yScale="0" xOffset="-152" yOffset="591"/>
  </outline>
</glyph>
<glyph name="uniA643" format="2">
  <advance width="407"/>
  <unicode hex="A643"/>
  <outline>
    <contour>
      <point x="56" y="248" type="line"/>
      <point x="337" y="248" type="line"/>
      <point x="337" y="295" type="line"/>
      <point x="56" y="295" type="line"/>
    </contour>
    <component base="uniA641"/>
  </outline>
</glyph>
<glyph name="uniA680" format="2">
  <advance width="548"/>
  <unicode hex="A680"/>
  <anchor x="274" y="0" name="bottom"/>
  <anchor x="274" y="714" name="top"/>
  <outline>
    <contour>
      <point x="206" y="714" type="line"/>
      <point x="251" y="714" type="line"/>
      <point x="251" y="845" type="line"/>
      <point x="206" y="845" type="line"/>
    </contour>
    <component base="afii10021"/>
  </outline>
</glyph>
<glyph name="uniA681" format="2">
  <advance width="478"/>
  <unicode hex="A681"/>
  <anchor x="240" y="0" name="bottom"/>
  <anchor x="240" y="536" name="top"/>
  <outline>
    <contour>
      <point x="161" y="536" type="line"/>
      <point x="206" y="536" type="line"/>
      <point x="213" y="659" type="line"/>
      <point x="168" y="659" type="line"/>
    </contour>
    <component base="afii10069"/>
  </outline>
</glyph>
<glyph name="uniA741" format="2">
  <advance width="593"/>
  <unicode hex="A741"/>
  <anchor x="237" y="760" name="top"/>
  <anchor x="237" y="0" name="bottom"/>
  <anchor x="368" y="860" name="topright"/>
  <outline>
    <contour>
      <point x="18" y="594" type="line"/>
      <point x="288" y="594" type="line"/>
      <point x="288" y="640" type="line"/>
      <point x="18" y="640" type="line"/>
    </contour>
    <component base="k"/>
  </outline>
</glyph>
<glyph name="uniA743" format="2">
  <advance width="586"/>
  <unicode hex="A743"/>
  <anchor x="237" y="760" name="top"/>
  <anchor x="237" y="0" name="bottom"/>
  <anchor x="368" y="860" name="topright"/>
  <outline>
    <contour>
      <point x="240" y="87" type="line"/>
      <point x="433" y="227" type="line"/>
      <point x="405" y="262" type="line"/>
      <point x="213" y="122" type="line"/>
    </contour>
    <component base="k"/>
  </outline>
</glyph>
<glyph name="uniA745" format="2">
  <advance width="593"/>
  <unicode hex="A745"/>
  <anchor x="237" y="0" name="bottom"/>
  <anchor x="124" y="760" name="top"/>
  <anchor x="368" y="860" name="topright"/>
  <outline>
    <contour>
      <point x="240" y="87" type="line"/>
      <point x="433" y="227" type="line"/>
      <point x="405" y="262" type="line"/>
      <point x="213" y="122" type="line"/>
    </contour>
    <contour>
      <point x="18" y="594" type="line"/>
      <point x="288" y="594" type="line"/>
      <point x="288" y="640" type="line"/>
      <point x="18" y="640" type="line"/>
    </contour>
    <component base="k"/>
  </outline>
</glyph>
<glyph name="uniA748" format="2">
  <advance width="623"/>
  <unicode hex="A748"/>
  <anchor x="249" y="0" name="bottom"/>
  <anchor x="152" y="357" name="center"/>
  <anchor x="147" y="714" name="top"/>
  <anchor x="478" y="714" name="topright"/>
  <outline>
    <contour>
      <point x="21" y="544" type="line"/>
      <point x="277" y="544" type="line"/>
      <point x="277" y="591" type="line"/>
      <point x="21" y="591" type="line"/>
    </contour>
    <component base="L"/>
  </outline>
</glyph>
<glyph name="uniA749" format="2">
  <advance width="264"/>
  <unicode hex="A749"/>
  <anchor x="127" y="0" name="bottom"/>
  <anchor x="127" y="268" name="center"/>
  <anchor x="127" y="760" name="top"/>
  <anchor x="219" y="760" name="topright"/>
  <outline>
    <contour>
      <point x="18" y="595" type="line"/>
      <point x="242" y="595" type="line"/>
      <point x="242" y="639" type="line"/>
      <point x="18" y="639" type="line"/>
    </contour>
    <component base="l"/>
  </outline>
</glyph>
<glyph name="uniA74A" format="2">
  <advance width="743"/>
  <unicode hex="A74A"/>
  <anchor x="299" y="0" name="bottom"/>
  <anchor x="299" y="357" name="center"/>
  <anchor x="299" y="714" name="top"/>
  <anchor x="577" y="714" name="topright"/>
  <outline>
    <contour>
      <point x="0" y="348" type="line"/>
      <point x="594" y="348" type="line"/>
      <point x="594" y="398" type="line"/>
      <point x="0" y="398" type="line"/>
    </contour>
    <component base="O"/>
  </outline>
</glyph>
<glyph name="uniA74B" format="2">
  <advance width="465"/>
  <unicode hex="A74B"/>
  <anchor x="232" y="0" name="bottom"/>
  <anchor x="232" y="268" name="center"/>
  <anchor x="232" y="536" name="top"/>
  <anchor x="446" y="536" name="topright"/>
  <outline>
    <contour>
      <point x="0" y="253" type="line"/>
      <point x="464" y="253" type="line"/>
      <point x="464" y="298" type="line"/>
      <point x="0" y="298" type="line"/>
    </contour>
    <component base="o"/>
  </outline>
</glyph>
<glyph name="uniA750" format="2">
  <advance width="485"/>
  <unicode hex="A750"/>
  <anchor x="150" y="0" name="bottom"/>
  <anchor x="243" y="714" name="top"/>
  <anchor x="486" y="714" name="topright"/>
  <outline>
    <contour>
      <point x="28" y="143" type="line"/>
      <point x="281" y="143" type="line"/>
      <point x="281" y="188" type="line"/>
      <point x="28" y="188" type="line"/>
    </contour>
    <component base="P"/>
  </outline>
</glyph>
<glyph name="uniA751" format="2">
  <advance width="493"/>
  <unicode hex="A751"/>
  <anchor x="129" y="-236" name="bottom"/>
  <anchor x="247" y="536" name="top"/>
  <anchor x="475" y="536" name="topright"/>
  <outline>
    <contour>
      <point x="13" y="-117" type="line"/>
      <point x="269" y="-117" type="line"/>
      <point x="269" y="-74" type="line"/>
      <point x="13" y="-74" type="line"/>
    </contour>
    <component base="p"/>
  </outline>
</glyph>
<glyph name="uniA75E" format="2">
  <advance width="538"/>
  <unicode hex="A75E"/>
  <anchor x="270" y="0" name="bottom"/>
  <anchor x="290" y="714" name="top"/>
  <anchor x="518" y="714" name="topright"/>
  <outline>
    <contour>
      <point x="95" y="0" type="line"/>
      <point x="136" y="0" type="line"/>
      <point x="334" y="714" type="line"/>
      <point x="292" y="714" type="line"/>
    </contour>
    <component base="V"/>
  </outline>
</glyph>
<glyph name="uniA75F" format="2">
  <advance width="464"/>
  <unicode hex="A75F"/>
  <anchor x="234" y="0" name="bottom"/>
  <anchor x="254" y="536" name="top"/>
  <anchor x="459" y="536" name="topright"/>
  <outline>
    <contour>
      <point x="87" y="-50" type="line"/>
      <point x="128" y="-50" type="line"/>
      <point x="325" y="596" type="line"/>
      <point x="282" y="596" type="line"/>
    </contour>
    <component base="v"/>
  </outline>
</glyph>
<glyph name="uniA765" format="2">
  <advance width="492"/>
  <unicode hex="A765"/>
  <anchor x="246" y="-240" name="bottom"/>
  <anchor x="246" y="760" name="top"/>
  <outline>
    <contour>
      <point x="13" y="476" type="line"/>
      <point x="338" y="683" type="line"/>
      <point x="338" y="730" type="line"/>
      <point x="13" y="523" type="line"/>
    </contour>
    <component base="thorn"/>
  </outline>
</glyph>
<glyph name="uniA767" format="2">
  <advance width="493"/>
  <unicode hex="A767"/>
  <anchor x="246" y="-240" name="bottom"/>
  <anchor x="246" y="760" name="top"/>
  <outline>
    <contour>
      <point x="13" y="-117" type="line"/>
      <point x="269" y="-117" type="line"/>
      <point x="269" y="-74" type="line"/>
      <point x="13" y="-74" type="line"/>
    </contour>
    <component base="thorn"/>
  </outline>
</glyph>
<glyph name="uniA793" format="2">
  <advance width="432"/>
  <unicode hex="A793"/>
  <anchor x="259" y="0" name="bottom"/>
  <anchor x="264" y="536" name="top"/>
  <anchor x="417" y="536" name="topright"/>
  <outline>
    <contour>
      <point x="14" y="253" type="line"/>
      <point x="249" y="253" type="line"/>
      <point x="249" y="299" type="line"/>
      <point x="14" y="299" type="line"/>
    </contour>
    <component base="c" xOffset="40"/>
  </outline>
</glyph>
<glyph name="uniA799" format="2">
  <advance width="300"/>
  <unicode hex="A799"/>
  <anchor x="150" y="0" name="bottom"/>
  <anchor x="217" y="770" name="top"/>
  <anchor x="355" y="770" name="topright"/>
  <outline>
    <contour>
      <point x="22" y="251" type="line"/>
      <point x="276" y="251" type="line"/>
      <point x="276" y="299" type="line"/>
      <point x="22" y="299" type="line"/>
    </contour>
    <component base="f"/>
  </outline>
</glyph>
<glyph name="uniA7A0" format="2">
  <advance width="714"/>
  <unicode hex="A7A0"/>
  <anchor x="311" y="0" name="bottom"/>
  <anchor x="327" y="714" name="top"/>
  <anchor x="556" y="714" name="topright"/>
  <outline>
    <contour>
      <point x="-2" y="225" type="line"/>
      <point x="574" y="367" type="line"/>
      <point x="574" y="415" type="line"/>
      <point x="-2" y="272" type="line"/>
    </contour>
    <component base="G"/>
  </outline>
</glyph>
<glyph name="uniA7A1" format="2">
  <advance width="430"/>
  <unicode hex="A7A1"/>
  <anchor x="208" y="-238" name="bottom"/>
  <anchor x="205" y="536" name="top"/>
  <anchor x="425" y="536" name="topright"/>
  <outline>
    <contour>
      <point x="1" y="292" type="line"/>
      <point x="414" y="384" type="line"/>
      <point x="414" y="432" type="line"/>
      <point x="1" y="339" type="line"/>
    </contour>
    <component base="g"/>
  </outline>
</glyph>
<glyph name="uniA7A2" format="2">
  <advance width="706"/>
  <unicode hex="A7A2"/>
  <anchor x="320" y="0" name="bottom"/>
  <anchor x="310" y="714" name="top"/>
  <anchor x="548" y="714" name="topright"/>
  <outline>
    <contour>
      <point x="33" y="116" type="line"/>
      <point x="538" y="233" type="line"/>
      <point x="538" y="281" type="line"/>
      <point x="33" y="163" type="line"/>
    </contour>
    <component base="K"/>
  </outline>
</glyph>
<glyph name="uniA7A4" format="2">
  <advance width="763"/>
  <unicode hex="A7A4"/>
  <anchor x="305" y="0" name="bottom"/>
  <anchor x="305" y="714" name="top"/>
  <anchor x="588" y="714" name="topright"/>
  <outline>
    <contour>
      <point x="28" y="261" type="line"/>
      <point x="587" y="423" type="line"/>
      <point x="587" y="471" type="line"/>
      <point x="28" y="309" type="line"/>
    </contour>
    <component base="N"/>
  </outline>
</glyph>
<glyph name="uniA7A5" format="2">
  <advance width="514"/>
  <unicode hex="A7A5"/>
  <anchor x="258" y="0" name="bottom"/>
  <anchor x="264" y="536" name="top"/>
  <anchor x="495" y="536" name="topright"/>
  <outline>
    <contour>
      <point x="20" y="183" type="line"/>
      <point x="502" y="294" type="line"/>
      <point x="502" y="341" type="line"/>
      <point x="20" y="229" type="line"/>
    </contour>
    <component base="n"/>
  </outline>
</glyph>
<glyph name="uniA7A6" format="2">
  <advance width="659"/>
  <unicode hex="A7A6"/>
  <anchor x="284" y="0" name="bottom"/>
  <anchor x="266" y="714" name="top"/>
  <anchor x="512" y="714" name="topright"/>
  <outline>
    <contour>
      <point x="33" y="421" type="line"/>
      <point x="527" y="546" type="line"/>
      <point x="527" y="594" type="line"/>
      <point x="33" y="468" type="line"/>
    </contour>
    <component base="R"/>
  </outline>
</glyph>
<glyph name="uniA7A7" format="2">
  <advance width="383"/>
  <unicode hex="A7A7"/>
  <anchor x="136" y="0" name="bottom"/>
  <anchor x="206" y="536" name="top"/>
  <anchor x="376" y="536" name="topright"/>
  <outline>
    <contour>
      <point x="20" y="181" type="line"/>
      <point x="277" y="240" type="line"/>
      <point x="277" y="287" type="line"/>
      <point x="20" y="227" type="line"/>
    </contour>
    <component base="r"/>
  </outline>
</glyph>
<glyph name="uniA7A9" format="2">
  <advance width="361"/>
  <unicode hex="A7A9"/>
  <anchor x="181" y="0" name="bottom"/>
  <anchor x="181" y="536" name="top"/>
  <anchor x="333" y="536" name="topright"/>
  <outline>
    <contour>
      <point x="13" y="207" type="line"/>
      <point x="347" y="300" type="line"/>
      <point x="347" y="346" type="line"/>
      <point x="13" y="253" type="line"/>
    </contour>
    <component base="s"/>
  </outline>
</glyph>
<glyph name="uniA7B9" format="2">
  <advance width="510"/>
  <unicode hex="A7B9"/>
  <anchor x="412" y="0" name="bottom"/>
  <anchor x="255" y="536" name="top"/>
  <anchor x="472" y="536" name="topright"/>
  <outline>
    <contour>
      <point x="22" y="-11" type="line"/>
      <point x="71" y="-11" type="line"/>
      <point x="486" y="582" type="line"/>
      <point x="437" y="582" type="line"/>
    </contour>
    <component base="u"/>
  </outline>
</glyph>
<glyph name="uniA7C3" format="2">
  <advance width="680"/>
  <unicode hex="A7C3"/>
  <outline>
    <contour>
      <point x="66" y="442" type="curve" smooth="yes"/>
      <point x="192" y="0" type="line"/>
      <point x="273" y="0" type="line"/>
      <point x="407" y="407" type="line" smooth="yes"/>
      <point x="428" y="469"/>
      <point x="447" y="493"/>
      <point x="479" y="493" type="curve" smooth="yes"/>
      <point x="512" y="493"/>
      <point x="533" y="461"/>
      <point x="533" y="407" type="curve" smooth="yes"/>
      <point x="533" y="359"/>
      <point x="515" y="326"/>
      <point x="483" y="311" type="curve"/>
      <point x="467" y="315"/>
      <point x="453" y="317"/>
      <point x="440" y="317" type="curve" smooth="yes"/>
      <point x="415" y="317"/>
      <point x="399" y="308"/>
      <point x="399" y="291" type="curve" smooth="yes"/>
      <point x="399" y="275"/>
      <point x="413" y="267"/>
      <point x="440" y="267" type="curve" smooth="yes"/>
      <point x="452" y="267"/>
      <point x="466" y="269"/>
      <point x="480" y="272" type="curve"/>
      <point x="529" y="256"/>
      <point x="552" y="217"/>
      <point x="552" y="154" type="curve" smooth="yes"/>
      <point x="552" y="90"/>
      <point x="520" y="49"/>
      <point x="468" y="49" type="curve" smooth="yes"/>
      <point x="437" y="49" type="line"/>
      <point x="379" y="162"/>
      <point x="338" y="268"/>
      <point x="338" y="367" type="curve" smooth="yes"/>
      <point x="338" y="446"/>
      <point x="358" y="516"/>
      <point x="384" y="591" type="curve"/>
      <point x="296" y="591" type="line"/>
      <point x="276" y="518"/>
      <point x="261" y="447"/>
      <point x="261" y="375" type="curve" smooth="yes"/>
      <point x="261" y="250"/>
      <point x="307" y="127"/>
      <point x="372" y="0" type="curve"/>
      <point x="471" y="0" type="line" smooth="yes"/>
      <point x="577" y="0"/>
      <point x="638" y="56"/>
      <point x="638" y="152" type="curve" smooth="yes"/>
      <point x="638" y="227"/>
      <point x="603" y="276"/>
      <point x="541" y="294" type="curve"/>
      <point x="592" y="317"/>
      <point x="617" y="356"/>
      <point x="617" y="415" type="curve" smooth="yes"/>
      <point x="617" y="495"/>
      <point x="567" y="545"/>
      <point x="488" y="545" type="curve" smooth="yes"/>
      <point x="424" y="545"/>
      <point x="386" y="508"/>
      <point x="360" y="430" type="curve" smooth="yes"/>
      <point x="250" y="86" type="line"/>
      <point x="243" y="122"/>
      <point x="228" y="177"/>
      <point x="216" y="220" type="curve" smooth="yes"/>
      <point x="165" y="405" type="line" smooth="yes"/>
      <point x="160" y="423"/>
      <point x="156" y="441"/>
      <point x="156" y="459" type="curve" smooth="yes"/>
      <point x="156" y="481"/>
      <point x="168" y="495"/>
      <point x="198" y="495" type="curve" smooth="yes"/>
      <point x="209" y="495" type="line"/>
      <point x="209" y="536" type="line"/>
      <point x="5" y="536" type="line"/>
      <point x="5" y="495" type="line"/>
      <point x="38" y="495"/>
      <point x="54" y="485"/>
    </contour>
  </outline>
</glyph>
<glyph name="uniA7C4" format="2">
  <advance width="498"/>
  <unicode hex="A7C4"/>
  <anchor x="289" y="0" name="bottom"/>
  <anchor x="299" y="714" name="top"/>
  <anchor x="478" y="714" name="topright"/>
  <outline>
    <contour>
      <point x="297" y="-248" type="curve" smooth="yes"/>
      <point x="388" y="-248"/>
      <point x="467" y="-209"/>
      <point x="467" y="-62" type="curve" smooth="yes"/>
      <point x="467" y="102" type="line"/>
      <point x="430" y="74" type="line"/>
      <point x="430" y="-62" type="line" smooth="yes"/>
      <point x="430" y="-153"/>
      <point x="401" y="-187"/>
      <point x="352" y="-187" type="curve" smooth="yes"/>
      <point x="307" y="-187"/>
      <point x="325" y="-124"/>
      <point x="272" y="-124" type="curve" smooth="yes"/>
      <point x="239" y="-124"/>
      <point x="221" y="-148"/>
      <point x="221" y="-179" type="curve" smooth="yes"/>
      <point x="221" y="-222"/>
      <point x="248" y="-248"/>
    </contour>
    <component base="C"/>
  </outline>
</glyph>
<glyph name="uniA7C6" format="2">
  <advance width="483"/>
  <unicode hex="A7C6"/>
  <anchor x="242" y="0" name="bottom"/>
  <anchor x="242" y="714" name="top"/>
  <anchor x="463" y="714" name="topright"/>
  <outline>
    <contour>
      <point x="276" y="-248" type="curve" smooth="yes"/>
      <point x="367" y="-248"/>
      <point x="446" y="-209"/>
      <point x="446" y="-62" type="curve" smooth="yes"/>
      <point x="446" y="102" type="line"/>
      <point x="409" y="74" type="line"/>
      <point x="409" y="-62" type="line" smooth="yes"/>
      <point x="409" y="-153"/>
      <point x="380" y="-187"/>
      <point x="331" y="-187" type="curve" smooth="yes"/>
      <point x="286" y="-187"/>
      <point x="304" y="-124"/>
      <point x="251" y="-124" type="curve" smooth="yes"/>
      <point x="218" y="-124"/>
      <point x="200" y="-148"/>
      <point x="200" y="-179" type="curve" smooth="yes"/>
      <point x="200" y="-222"/>
      <point x="227" y="-248"/>
    </contour>
    <component base="Z"/>
  </outline>
</glyph>
<glyph name="uniA7C7" format="2">
  <advance width="584"/>
  <unicode hex="A7C7"/>
  <anchor x="282" y="0" name="bottom"/>
  <anchor x="292" y="357" name="center"/>
  <anchor x="292" y="714" name="top"/>
  <anchor x="564" y="714" name="topright"/>
  <outline>
    <contour>
      <point x="133" y="344" type="line"/>
      <point x="508" y="344" type="line"/>
      <point x="508" y="388" type="line"/>
      <point x="133" y="388" type="line"/>
    </contour>
    <component base="D"/>
  </outline>
</glyph>
<glyph name="uniA7C8" format="2">
  <advance width="493"/>
  <unicode hex="A7C8"/>
  <anchor x="247" y="0" name="bottom"/>
  <anchor x="247" y="268" name="center"/>
  <anchor x="365" y="760" name="top"/>
  <anchor x="466" y="760" name="topright"/>
  <outline>
    <contour>
      <point x="72" y="251" type="line"/>
      <point x="379" y="251" type="line"/>
      <point x="379" y="291" type="line"/>
      <point x="72" y="291" type="line"/>
    </contour>
    <component base="d"/>
  </outline>
</glyph>
<glyph name="uniA7C9" format="2">
  <advance width="435"/>
  <unicode hex="A7C9"/>
  <anchor x="218" y="0" name="bottom"/>
  <anchor x="228" y="714" name="top"/>
  <anchor x="415" y="714" name="topright"/>
  <outline>
    <contour>
      <point x="26" y="344" type="line"/>
      <point x="411" y="344" type="line"/>
      <point x="411" y="388" type="line"/>
      <point x="26" y="388" type="line"/>
    </contour>
    <component base="S"/>
  </outline>
</glyph>
<glyph name="uniA7CA" format="2">
  <advance width="361"/>
  <unicode hex="A7CA"/>
  <anchor x="181" y="0" name="bottom"/>
  <anchor x="181" y="536" name="top"/>
  <anchor x="333" y="536" name="topright"/>
  <outline>
    <contour>
      <point x="20" y="256" type="line"/>
      <point x="340" y="256" type="line"/>
      <point x="340" y="296" type="line"/>
      <point x="20" y="296" type="line"/>
    </contour>
    <component base="s"/>
  </outline>
</glyph>
<glyph name="uniAB30" format="2">
  <advance width="493"/>
  <unicode hex="AB30"/>
  <anchor x="246" y="0" name="bottom"/>
  <anchor x="246" y="536" name="top"/>
  <outline>
    <contour>
      <point x="-13" y="263" type="line"/>
      <point x="482" y="263" type="line"/>
      <point x="482" y="306" type="line"/>
      <point x="-13" y="306" type="line"/>
    </contour>
    <component base="uni0251"/>
  </outline>
</glyph>
<glyph name="uniAB66" format="2">
  <advance width="930"/>
  <unicode hex="AB66"/>
  <anchor x="392" y="0" name="bottom"/>
  <anchor x="392" y="760" name="top"/>
  <outline>
    <contour>
      <point x="874" y="-248" type="curve" smooth="yes"/>
      <point x="923" y="-248"/>
      <point x="950" y="-222"/>
      <point x="950" y="-179" type="curve" smooth="yes"/>
      <point x="950" y="-148"/>
      <point x="932" y="-124"/>
      <point x="899" y="-124" type="curve" smooth="yes"/>
      <point x="846" y="-124"/>
      <point x="864" y="-187"/>
      <point x="819" y="-187" type="curve" smooth="yes"/>
      <point x="770" y="-187"/>
      <point x="741" y="-153"/>
      <point x="741" y="-62" type="curve" smooth="yes"/>
      <point x="741" y="74" type="line"/>
      <point x="704" y="102" type="line"/>
      <point x="704" y="-62" type="line" smooth="yes"/>
      <point x="704" y="-209"/>
      <point x="783" y="-248"/>
    </contour>
    <component base="dzlig"/>
  </outline>
</glyph>
<glyph name="uniAB69" format="2">
  <advance width="442"/>
  <unicode hex="AB69"/>
  <anchor x="215.5" y="287.4" name="bottom"/>
  <anchor x="-0.95" y="287.4" name="bottomleft"/>
  <anchor x="222" y="609" name="top"/>
  <outline>
    <contour>
      <point x="293" y="609" type="line"/>
      <point x="224" y="353" type="line"/>
      <point x="157" y="609" type="line"/>
      <point x="112" y="609" type="line"/>
      <point x="46" y="359" type="line" smooth="yes"/>
      <point x="35" y="319"/>
      <point x="27" y="312"/>
      <point x="8" y="312" type="curve" smooth="yes"/>
      <point x="0" y="312" type="line"/>
      <point x="0" y="287" type="line"/>
      <point x="110" y="287" type="line"/>
      <point x="110" y="312" type="line"/>
      <point x="106" y="312" type="line" smooth="yes"/>
      <point x="86" y="312"/>
      <point x="76" y="321"/>
      <point x="76" y="341" type="curve" smooth="yes"/>
      <point x="76" y="348"/>
      <point x="78" y="361"/>
      <point x="80" y="371" type="curve" smooth="yes"/>
      <point x="105" y="469" type="line" smooth="yes"/>
      <point x="114" y="506"/>
      <point x="121" y="539"/>
      <point x="123" y="559" type="curve"/>
      <point x="125" y="559" type="line"/>
      <point x="127" y="538"/>
      <point x="138" y="492"/>
      <point x="145" y="467" type="curve" smooth="yes"/>
      <point x="195" y="289" type="line"/>
      <point x="227" y="289" type="line"/>
      <point x="281" y="471" type="line" smooth="yes"/>
      <point x="288" y="498"/>
      <point x="299" y="539"/>
      <point x="301" y="558" type="curve"/>
      <point x="303" y="558" type="line"/>
      <point x="306" y="539"/>
      <point x="314" y="495"/>
      <point x="321" y="466" type="curve" smooth="yes"/>
      <point x="343" y="363" type="line"/>
      <point x="346" y="354"/>
      <point x="347" y="344"/>
      <point x="347" y="337" type="curve" smooth="yes"/>
      <point x="347" y="317"/>
      <point x="337" y="312"/>
      <point x="316" y="312" type="curve" smooth="yes"/>
      <point x="313" y="312" type="line"/>
      <point x="313" y="287" type="line"/>
      <point x="442" y="287" type="line"/>
      <point x="442" y="312" type="line"/>
      <point x="441" y="312" type="line" smooth="yes"/>
      <point x="421" y="312"/>
      <point x="410" y="318"/>
      <point x="404" y="344" type="curve" smooth="yes"/>
      <point x="336" y="609" type="line"/>
    </contour>
  </outline>
</glyph>
<glyph name="oslash.sc" format="2">
  <advance width="522"/>
  <anchor x="261" y="0" name="bottom"/>
  <anchor x="261" y="571" name="top"/>
  <anchor x="261" y="286" name="center"/>
  <anchor x="502" y="571" name="topright"/>
  <outline>
    <contour>
      <point x="72" y="-35" type="line"/>
      <point x="122" y="-35" type="line"/>
      <point x="446" y="602" type="line"/>
      <point x="397" y="602" type="line"/>
    </contour>
    <component base="o.sc"/>
  </outline>
</glyph>
<glyph name="uni0268dotless" format="2">
  <advance width="260"/>
  <anchor x="130" y="0" name="bottom"/>
  <anchor x="130" y="536" name="top"/>
  <outline>
    <contour>
      <point x="14" y="259" type="line"/>
      <point x="253" y="259" type="line"/>
      <point x="253" y="303" type="line"/>
      <point x="14" y="303" type="line"/>
    </contour>
    <component base="idotless"/>
  </outline>
</glyph>
